# xmcd
#
# Track frame offsets:
#	150
#	12581
#	24057
#	33876
#	42270
#
# Disc length: 720 seconds
#
# Revision: 1
# Processed by: cddbd v1.5.2PL0 Copyright (c) Steve Scherf et al.
# Submitted via: audiograbber 1.83.01
#
DISCID=2d02ce05
DTITLE=Kenny Rogers - Grandes Mitos II
DYEAR=2000
DGENRE=Country
TTITLE0=Ruben James
TTITLE1=Poem For A Little Lady
TTITLE2=Once Again She's All Alone
TTITLE3=It's Crazy Afternoon
TTITLE4=Me And Bobby McGhee
EXTD=
EXTT0=
EXTT1=
EXTT2=
EXTT3=
EXTT4=
PLAYORDER=
